<svg width="24" height="24" viewBox="0 0 24 24" fill="none" xmlns="http://www.w3.org/2000/svg">
<path d="M12.1407 3C6.6182 2.91797 2.18559 7.86328 3.11723 13.5234C3.75004 17.3643 6.90238 20.3848 10.7579 20.9062C13.3565 21.2578 15.7852 20.5078 17.625 19.0312L16.6875 17.8594C15.1524 19.0898 13.1338 19.7256 10.9454 19.4297C7.75492 18.999 5.13871 16.4648 4.61723 13.2891C3.83207 8.51074 7.49418 4.43262 12.1172 4.5C16.0577 4.55859 19.3799 7.82519 19.5 11.7656C19.503 11.8506 19.5 11.9326 19.5 12.0234C19.4942 13.6758 18.1553 15 16.5 15C15.6621 15 15 14.3379 15 13.5V7.5H13.5V8.08594C12.961 7.71973 12.3194 7.5 11.625 7.5C9.77055 7.5 8.25004 9.02051 8.25004 10.875V13.125C8.25004 14.9795 9.77055 16.5 11.625 16.5C12.6358 16.5 13.5352 16.04 14.1563 15.3281C14.7071 16.0283 15.5479 16.5 16.5 16.5C18.9639 16.5 20.9913 14.4902 21 12.0234C21 11.9238 21.003 11.8271 21 11.7187C20.8565 6.9668 16.8926 3.07031 12.1407 3ZM11.625 9C12.668 9 13.5 9.83203 13.5 10.875V13.125C13.5 14.168 12.668 15 11.625 15C10.5821 15 9.75004 14.168 9.75004 13.125V10.875C9.75004 9.83203 10.5821 9 11.625 9Z" fill="#54595F"/>
</svg>
